<svg xmlns="http://www.w3.org/2000/svg" xmlns:xlink="http://www.w3.org/1999/xlink" width="1080" zoomAndPan="magnify" viewBox="0 0 810 809.999993" height="1080" preserveAspectRatio="xMidYMid meet" version="1.0"><defs><g/><clipPath id="bdfb22e14a"><path d="M 123 126 L 565.878906 126 L 565.878906 441 L 123 441 Z M 123 126 " clip-rule="nonzero"/></clipPath></defs><rect x="-81" width="972" fill="#ffffff" y="-80.999999" height="971.999992" fill-opacity="1"/><rect x="-81" width="972" fill="#212529" y="-80.999999" height="971.999992" fill-opacity="1"/><g clip-path="url(#bdfb22e14a)"><path fill="#ffffff" d="M 288.222656 438.417969 C 182.984375 420.921875 112.285156 274.535156 139.386719 177.183594 C 139.476562 176.914062 139.296875 176.730469 139.113281 176.640625 C 138.933594 176.550781 138.660156 176.640625 138.570312 176.824219 C 111.378906 225.769531 122.4375 292.84375 152.4375 346.6875 C 184.796875 404.789062 239.183594 447.753906 288.128906 439.234375 C 288.3125 439.234375 288.492188 439.050781 288.492188 438.78125 C 288.492188 438.507812 288.402344 438.417969 288.222656 438.417969 M 395.542969 346.050781 C 393.730469 364.816406 389.46875 385.480469 371.429688 395.453125 C 334.722656 415.847656 278.976562 359.828125 241.539062 293.390625 C 204.105469 227.128906 184.980469 150.445312 221.417969 129.597656 C 226.402344 126.789062 232.476562 125.789062 239.273438 126.335938 L 386.75 140.476562 L 276.527344 138.84375 C 282.601562 142.015625 288.582031 145.640625 294.292969 149.539062 L 565.679688 164.585938 L 311.335938 162.320312 C 316.320312 166.488281 320.761719 170.660156 324.476562 174.648438 L 479.660156 186.792969 L 334.539062 187.609375 L 324.929688 187.519531 L 323.933594 187.519531 C 295.925781 157.0625 260.121094 134.21875 240.269531 145.371094 C 185.886719 176.097656 313.238281 401.796875 367.625 371.160156 C 378.046875 365.269531 382.671875 350.765625 383.125 332.636719 L 385.117188 332.636719 L 554.257812 334.269531 Z M 395.542969 346.050781 " fill-opacity="1" fill-rule="evenodd"/></g><path fill="#ffffff" d="M 311.96875 425.910156 C 324.570312 425 338.164062 419.746094 347.773438 412.765625 C 341.699219 422.554688 322.03125 428.71875 311.96875 425.910156 M 286.136719 399.53125 C 294.929688 402.433594 305.625 401.617188 314.328125 397.898438 C 307.074219 405.332031 292.027344 405.242188 286.136719 399.53125 Z M 271.90625 400.347656 C 276.710938 408.6875 289.128906 410.410156 290.125 419.652344 C 290.398438 421.648438 290.398438 423.734375 290.304688 425.726562 C 290.214844 426.542969 290.214844 427.269531 290.125 428.082031 C 290.035156 428.898438 289.945312 429.625 289.761719 430.441406 C 289.671875 430.804688 289.582031 431.074219 289.398438 431.347656 C 289.21875 431.617188 288.945312 431.890625 288.675781 432.070312 C 288.402344 432.253906 288.039062 432.34375 287.769531 432.433594 C 287.40625 432.523438 287.132812 432.523438 286.769531 432.433594 C 278.25 430.441406 269.550781 427.359375 260.9375 423.28125 C 252.328125 419.199219 243.804688 414.214844 235.375 408.234375 L 235.195312 408.050781 L 235.105469 407.960938 C 234.742188 407.597656 234.46875 407.054688 234.378906 406.601562 C 234.289062 405.96875 234.378906 405.332031 234.832031 404.789062 C 235.921875 403.246094 237.007812 401.617188 237.914062 399.984375 C 238.820312 398.351562 239.636719 396.722656 240.269531 395.089844 C 240.816406 393.640625 241.359375 392.28125 241.8125 390.828125 C 242.175781 389.46875 242.539062 388.019531 242.808594 386.570312 C 242.898438 385.933594 243.261719 385.300781 243.804688 384.9375 C 244.351562 384.574219 244.984375 384.394531 245.621094 384.484375 C 248.972656 385.027344 252.328125 385.210938 255.769531 385.210938 C 259.214844 385.210938 262.839844 384.9375 266.46875 384.394531 C 271 383.757812 275.53125 382.671875 280.0625 381.128906 C 284.503906 379.679688 288.945312 377.867188 293.386719 375.601562 C 293.839844 375.421875 294.292969 375.328125 294.839844 375.328125 C 295.292969 375.421875 295.746094 375.601562 296.199219 375.875 C 300.910156 379.863281 305.714844 383.488281 310.429688 386.839844 C 315.140625 390.195312 319.945312 393.277344 324.839844 396.085938 C 325.203125 396.269531 325.476562 396.628906 325.746094 396.992188 C 325.929688 397.355469 326.109375 397.71875 326.109375 398.171875 C 326.109375 398.625 326.019531 398.988281 325.839844 399.351562 C 325.65625 399.710938 325.386719 400.074219 325.023438 400.257812 C 323.210938 401.433594 321.398438 402.523438 319.492188 403.519531 C 302.722656 412.039062 287.222656 412.855469 271.90625 400.347656 Z M 254.59375 379.410156 C 238.730469 379.410156 230.390625 372.699219 223.410156 363.636719 C 226.039062 371.792969 237.28125 378.863281 235.558594 388.472656 C 235.105469 390.828125 234.46875 393.09375 233.472656 395.453125 C 233.019531 396.449219 232.566406 397.445312 232.113281 398.351562 C 231.570312 399.351562 231.117188 400.257812 230.480469 401.253906 C 230.300781 401.433594 230.210938 401.707031 229.9375 401.796875 C 229.757812 401.980469 229.484375 402.070312 229.214844 402.070312 C 228.941406 402.070312 228.667969 402.070312 228.488281 402.070312 C 228.214844 401.980469 228.035156 401.886719 227.851562 401.707031 C 219.515625 395.089844 211.355469 387.566406 203.5625 379.136719 C 195.945312 370.980469 188.785156 362.003906 182.078125 352.304688 C 181.808594 351.945312 181.714844 351.492188 181.808594 351.128906 C 181.808594 350.675781 181.988281 350.3125 182.351562 350.039062 C 184.074219 348.410156 185.613281 346.6875 187.0625 344.875 C 188.515625 343.0625 189.785156 341.25 190.960938 339.34375 C 191.867188 337.804688 192.683594 336.351562 193.410156 334.8125 C 194.132812 333.273438 194.769531 331.730469 195.222656 330.191406 C 195.3125 329.917969 195.402344 329.738281 195.585938 329.554688 C 195.765625 329.375 195.945312 329.191406 196.21875 329.101562 C 196.402344 329.011719 196.671875 328.921875 196.945312 328.921875 C 197.214844 328.921875 197.398438 328.921875 197.667969 329.011719 C 201.113281 330.371094 204.738281 331.457031 208.636719 332.183594 C 212.535156 332.910156 216.523438 333.363281 220.601562 333.453125 C 225.316406 333.542969 230.300781 333.273438 235.285156 332.457031 C 240.269531 331.730469 245.257812 330.550781 250.242188 328.921875 C 250.605469 328.828125 250.96875 328.828125 251.328125 328.921875 C 251.691406 329.011719 251.964844 329.285156 252.234375 329.554688 C 257.855469 337.078125 263.65625 344.238281 269.640625 350.945312 C 275.710938 357.746094 281.96875 364 288.3125 369.800781 C 288.492188 369.980469 288.675781 370.253906 288.765625 370.527344 C 288.855469 370.796875 288.855469 371.070312 288.855469 371.433594 C 288.765625 371.703125 288.675781 371.976562 288.492188 372.246094 C 288.3125 372.519531 288.039062 372.699219 287.769531 372.792969 C 284.503906 374.242188 281.242188 375.421875 277.886719 376.417969 C 274.535156 377.414062 271.179688 378.140625 267.828125 378.683594 C 263.386719 379.5 258.945312 379.679688 254.59375 379.410156 Z M 194.585938 306.167969 C 204.738281 312.875 218.789062 318.316406 231.75 318.316406 C 218.789062 323.300781 199.300781 315.597656 194.585938 306.167969 Z M 234.378906 326.382812 C 230.753906 326.835938 227.128906 327.015625 223.59375 326.925781 C 218.515625 326.835938 213.621094 326.109375 209 324.933594 C 192.140625 321.398438 183.890625 307.074219 177.726562 294.113281 C 179.359375 304.992188 191.050781 320.128906 187.335938 331.097656 C 186.519531 333.542969 185.34375 335.992188 183.890625 338.347656 C 183.257812 339.433594 182.53125 340.433594 181.808594 341.429688 C 181.082031 342.425781 180.265625 343.421875 179.449219 344.421875 C 179.269531 344.601562 179.085938 344.691406 178.90625 344.78125 C 178.726562 344.875 178.453125 344.875 178.273438 344.875 C 178 344.875 177.820312 344.78125 177.636719 344.691406 C 177.457031 344.601562 177.273438 344.421875 177.183594 344.238281 C 176.277344 342.789062 175.28125 341.246094 174.375 339.707031 C 173.46875 338.257812 172.5625 336.714844 171.65625 335.085938 C 165.855469 324.933594 160.777344 314.691406 156.609375 304.445312 C 152.347656 293.933594 148.902344 283.328125 146.367188 272.902344 C 146.273438 272.632812 146.273438 272.269531 146.457031 271.996094 C 146.546875 271.726562 146.726562 271.453125 147 271.273438 C 148.996094 269.914062 150.808594 268.371094 152.621094 266.832031 C 154.433594 265.289062 156.0625 263.65625 157.695312 262.027344 C 159.054688 260.574219 160.324219 259.125 161.503906 257.585938 C 162.679688 256.042969 163.859375 254.503906 164.855469 252.960938 C 164.949219 252.78125 165.128906 252.597656 165.308594 252.507812 C 165.492188 252.417969 165.671875 252.328125 165.855469 252.328125 C 166.035156 252.328125 166.214844 252.328125 166.488281 252.328125 C 166.667969 252.417969 166.851562 252.507812 167.03125 252.597656 C 169.75 254.773438 172.832031 256.496094 176.1875 257.949219 C 179.539062 259.398438 183.167969 260.484375 187.0625 261.210938 C 190.960938 261.9375 195.039062 262.296875 199.300781 262.296875 C 203.46875 262.296875 207.820312 261.84375 212.261719 261.03125 C 212.625 260.9375 212.988281 261.03125 213.261719 261.210938 C 213.53125 261.390625 213.804688 261.664062 213.894531 261.9375 C 216.523438 268.371094 219.332031 274.808594 222.503906 281.152344 C 225.585938 287.496094 228.941406 293.84375 232.566406 300.097656 C 234.742188 303.902344 237.007812 307.621094 239.273438 311.246094 C 241.539062 314.871094 243.988281 318.496094 246.34375 321.941406 C 246.527344 322.121094 246.617188 322.394531 246.617188 322.574219 C 246.617188 322.847656 246.617188 323.027344 246.527344 323.300781 C 246.433594 323.574219 246.34375 323.753906 246.164062 323.84375 C 245.980469 324.027344 245.800781 324.117188 245.527344 324.207031 C 241.722656 325.203125 238.003906 325.929688 234.378906 326.382812 Z M 172.5625 230.664062 C 179.539062 238.367188 189.964844 245.167969 200.296875 246.617188 C 189.238281 250.152344 174.917969 240.542969 172.5625 230.664062 Z M 199.933594 254.957031 C 177.457031 254.320312 162.5 245.621094 161.867188 221.054688 C 158.875 237.644531 163.769531 245.621094 151.351562 258.671875 C 150.535156 259.488281 149.71875 260.304688 148.902344 261.121094 C 148.089844 261.9375 147.179688 262.660156 146.273438 263.386719 C 146.09375 263.476562 145.914062 263.566406 145.730469 263.65625 C 145.550781 263.65625 145.367188 263.65625 145.1875 263.566406 C 145.007812 263.476562 144.824219 263.386719 144.734375 263.203125 C 144.644531 263.023438 144.554688 262.84375 144.460938 262.660156 C 142.46875 252.328125 141.289062 242.265625 141.019531 232.476562 C 140.65625 222.6875 141.199219 213.171875 142.558594 204.195312 C 142.558594 204.015625 142.648438 203.832031 142.738281 203.742188 C 142.832031 203.652344 142.921875 203.472656 143.101562 203.378906 C 145.460938 202.019531 147.632812 200.570312 149.808594 199.121094 C 151.984375 197.671875 154.160156 196.039062 156.246094 194.40625 C 157.878906 193.136719 159.507812 191.867188 161.050781 190.507812 C 162.589844 189.148438 164.222656 187.789062 165.761719 186.339844 C 165.855469 186.25 166.035156 186.160156 166.214844 186.066406 C 166.398438 185.976562 166.488281 185.976562 166.667969 185.976562 C 166.851562 185.976562 167.03125 186.066406 167.121094 186.160156 C 167.304688 186.25 167.394531 186.339844 167.484375 186.519531 C 168.753906 188.425781 170.296875 190.148438 172.015625 191.6875 C 173.738281 193.320312 175.644531 194.679688 177.726562 195.949219 C 180.265625 197.488281 183.074219 198.667969 186.066406 199.664062 C 189.058594 200.660156 192.230469 201.296875 195.585938 201.660156 C 195.855469 201.660156 196.039062 201.839844 196.21875 201.929688 C 196.402344 202.113281 196.492188 202.292969 196.582031 202.566406 C 197.851562 210.722656 199.574219 219.0625 201.75 227.492188 C 203.921875 235.832031 206.644531 244.351562 209.726562 252.871094 C 209.816406 253.054688 209.816406 253.234375 209.816406 253.414062 C 209.816406 253.597656 209.726562 253.777344 209.632812 253.867188 C 209.542969 254.050781 209.453125 254.140625 209.273438 254.230469 C 209.089844 254.320312 209 254.414062 208.820312 254.414062 C 205.917969 254.867188 202.925781 254.957031 199.933594 254.957031 Z M 173.832031 175.914062 C 176.003906 181.265625 179.902344 185.613281 184.980469 188.695312 C 187.699219 190.328125 190.78125 191.597656 194.132812 192.414062 C 194.316406 192.414062 194.40625 192.414062 194.496094 192.320312 C 194.585938 192.230469 194.679688 192.050781 194.679688 191.960938 C 191.957031 165.855469 193.410156 156.882812 200.390625 136.941406 C 200.480469 136.757812 200.390625 136.578125 200.207031 136.488281 C 200.027344 136.394531 199.84375 136.304688 199.664062 136.394531 C 196.855469 138.027344 192.230469 140.65625 190.238281 141.835938 C 164.765625 156.246094 155.15625 161.957031 146.636719 191.144531 C 146.546875 191.324219 146.636719 191.507812 146.820312 191.597656 C 147 191.6875 147.179688 191.6875 147.363281 191.597656 C 148.542969 190.691406 149.808594 189.875 150.898438 188.96875 C 155.972656 185.070312 160.6875 180.71875 164.949219 176.1875 C 166.941406 174.011719 177.457031 158.785156 177.546875 158.785156 C 177.910156 158.875 171.382812 167.578125 173.832031 175.914062 Z M 314.597656 412.402344 C 309.523438 414.304688 304.265625 415.664062 299.007812 416.300781 C 298.734375 416.300781 298.554688 416.570312 298.644531 416.753906 C 298.917969 419.019531 298.917969 421.285156 298.828125 423.640625 C 298.734375 426 298.375 428.355469 297.828125 430.710938 C 297.828125 430.804688 297.828125 430.984375 297.921875 431.074219 C 298.011719 431.164062 298.101562 431.257812 298.28125 431.257812 C 325.203125 433.703125 342.335938 423.28125 357.292969 410.863281 C 357.472656 410.769531 357.5625 410.589844 357.472656 410.316406 C 357.382812 410.136719 357.292969 409.957031 357.019531 409.957031 C 348.589844 409.683594 339.796875 406.328125 332.546875 402.703125 C 332.363281 402.613281 332.183594 402.613281 332.09375 402.703125 C 326.746094 406.875 320.761719 410.136719 314.597656 412.402344 Z M 314.597656 412.402344 " fill-opacity="1" fill-rule="evenodd"/><g fill="#ffffff" fill-opacity="1"><g transform="translate(142.300343, 615.380138)"><g><path d="M 90.140625 -7.632812 L 138.472656 -11.726562 C 137.367188 -24.777344 135.941406 -35.851562 134.640625 -45.476562 C 133.097656 -55.082031 130.730469 -62.914062 127.78125 -68.992188 C 124.832031 -75.070312 120.558594 -79.578125 115.4375 -82.550781 C 110.097656 -85.261719 102.925781 -86.601562 93.941406 -86.328125 C 99.703125 -87.300781 104.433594 -88.921875 108.597656 -91.464844 C 112.765625 -94.007812 115.902344 -97.195312 118.496094 -101.0625 C 120.867188 -104.671875 122.453125 -108.945312 123.511719 -113.660156 C 124.332031 -118.351562 124.648438 -123.246094 124.199219 -128.5625 L 123.199219 -137.484375 C 121.820312 -145.15625 119.554688 -151.78125 116.667969 -157.132812 C 113.558594 -162.226562 109.546875 -166.507812 104.910156 -169.523438 C 100.273438 -172.539062 94.75 -174.507812 88.585938 -175.445312 C 82.421875 -176.382812 75.574219 -176.777344 68.324219 -176.164062 L -9.285156 -167.15625 L 4.832031 -0.410156 L 51.957031 -4.398438 L 47.515625 -56.839844 C 54.84375 -59.40625 60.804688 -60.886719 65.636719 -61.296875 C 73.128906 -61.929688 78.429688 -59.703125 81.757812 -54.871094 C 85.109375 -49.800781 87.273438 -41.464844 88.296875 -29.382812 Z M 39 -131.570312 L 61.109375 -134.90625 C 64.25 -135.171875 66.988281 -134.429688 69.085938 -132.660156 C 71.183594 -130.890625 72.394531 -128.070312 72.984375 -123.984375 L 74.460938 -106.585938 C 74.726562 -103.441406 74.203125 -100.964844 73.160156 -98.929688 C 72.117188 -96.894531 70.769531 -95.5625 69.398438 -94.472656 C 67.789062 -93.363281 66.140625 -92.734375 64.710938 -92.371094 C 63.039062 -91.988281 61.832031 -91.882812 61.105469 -91.824219 L 42.496094 -90.246094 Z M 39 -131.570312 "/></g></g></g><g fill="#ffffff" fill-opacity="1"><g transform="translate(285.606024, 603.24518)"><g><path d="M -0.0585938 -58.167969 C 0.597656 -50.433594 1.714844 -42.984375 3.558594 -35.59375 C 5.160156 -28.183594 8.390625 -21.640625 12.746094 -16.171875 C 17.105469 -10.699219 23.316406 -6.355469 31.113281 -3.363281 C 38.933594 -0.132812 49.226562 0.699219 62.035156 -0.386719 C 75.808594 -1.550781 86.539062 -4.164062 94.207031 -8.464844 C 101.632812 -12.742188 107.265625 -18.089844 110.621094 -24.457031 C 113.996094 -30.585938 115.839844 -37.554688 116.171875 -45.128906 C 116.503906 -52.703125 116.332031 -60.476562 115.65625 -68.453125 C 115.066406 -75.460938 113.96875 -82.667969 112.828125 -90.363281 C 111.449219 -98.035156 108.679688 -104.855469 104.765625 -110.855469 C 100.851562 -116.851562 95.082031 -121.71875 87.484375 -125.210938 C 79.886719 -128.707031 69.3125 -130 56.019531 -128.875 L 50.945312 -128.445312 C 36.992188 -126.535156 26.320312 -123.195312 18.914062 -118.675781 C 11.53125 -113.910156 6.402344 -108.367188 3.550781 -101.796875 C 0.457031 -95.207031 -1.144531 -88.253906 -0.992188 -80.722656 C -1.085938 -73.171875 -0.691406 -65.65625 -0.0585938 -58.167969 Z M 55.066406 -88.390625 C 57.203125 -89.058594 59.113281 -89.464844 60.566406 -89.585938 C 63.464844 -89.832031 65.699219 -89.292969 67.253906 -88.207031 C 68.824219 -86.878906 69.9375 -85.269531 70.625 -82.894531 C 71.3125 -80.519531 71.578125 -77.375 71.863281 -73.992188 C 72.171875 -70.367188 72.519531 -66.257812 72.886719 -61.910156 C 73.316406 -56.835938 73.445312 -52.464844 73.75 -48.839844 C 74.078125 -44.972656 73.859375 -41.789062 73.097656 -39.292969 C 72.335938 -36.792969 70.808594 -34.714844 68.976562 -33.34375 C 66.90625 -31.953125 63.804688 -31.203125 59.9375 -30.875 C 56.070312 -30.546875 52.890625 -30.765625 50.851562 -31.808594 C 48.816406 -32.855469 47.203125 -34.664062 46.03125 -37 C 44.863281 -39.335938 44.113281 -42.433594 43.785156 -46.300781 C 43.234375 -49.90625 42.867188 -54.257812 42.4375 -59.332031 C 42.007812 -64.40625 41.660156 -68.515625 41.617188 -71.917969 C 41.347656 -75.058594 41.609375 -77.757812 42.390625 -80.015625 C 43.191406 -82.03125 44.5 -83.84375 46.351562 -84.976562 C 48.203125 -86.105469 51.261719 -87.339844 55.066406 -88.390625 Z M 55.066406 -88.390625 "/></g></g></g><g fill="#ffffff" fill-opacity="1"><g transform="translate(411.028694, 592.624535)"><g><path d="M 2.460938 -28.441406 C 2.785156 -24.574219 3.558594 -21.234375 5.292969 -17.972656 C 7.03125 -14.710938 9.230469 -11.734375 12.09375 -9.542969 C 14.976562 -7.109375 18.542969 -5.222656 23.015625 -4.140625 C 27.246094 -3.039062 32.140625 -2.722656 37.699219 -3.191406 C 44.949219 -3.804688 52.078125 -5.871094 59.324219 -9.40625 C 66.566406 -12.9375 72.746094 -17.597656 78.09375 -23.40625 L 80.230469 -6.792969 L 117.207031 -9.925781 L 108.46875 -127.476562 C 98.519531 -127.121094 87.847656 -126.703125 76.207031 -126.203125 C 66.015625 -125.828125 54.394531 -125.085938 41.304688 -124.464844 C 28.234375 -123.601562 14.195312 -122.65625 -0.566406 -121.648438 L 3.773438 -70.417969 L 72.859375 -82.351562 L 75.5 -51.179688 C 70.019531 -52.660156 63.574219 -54.0625 55.675781 -55.339844 C 47.777344 -56.621094 40.207031 -56.953125 32.472656 -56.296875 C 28.121094 -55.929688 24.054688 -55.097656 20.25 -54.042969 C 16.464844 -52.75 13.183594 -51.257812 10.449219 -49.078125 C 7.710938 -46.898438 5.519531 -44.035156 4.09375 -40.75 C 2.449219 -37.203125 2.050781 -33.277344 2.460938 -28.441406 Z M 33.734375 -29.875 C 33.511719 -32.53125 34.292969 -34.789062 36.585938 -36.445312 C 38.640625 -38.078125 41.457031 -39.289062 45.324219 -39.617188 C 47.257812 -39.78125 48.988281 -39.441406 51.003906 -38.636719 C 53.019531 -37.835938 54.792969 -37.011719 56.566406 -36.1875 C 58.140625 -34.859375 59.953125 -33.554688 61.769531 -32.246094 C 60.222656 -30.414062 58.652344 -28.820312 57.285156 -27.730469 C 55.695312 -26.378906 54.085938 -25.269531 52.234375 -24.136719 C 50.382812 -23.007812 48.710938 -22.621094 46.777344 -22.460938 C 42.910156 -22.132812 39.96875 -22.371094 37.671875 -23.636719 C 35.132812 -24.878906 33.980469 -26.972656 33.734375 -29.875 Z M 33.734375 -29.875 "/></g></g></g><g fill="#ffffff" fill-opacity="1"><g transform="translate(534.276405, 582.188064)"><g><path d="M -5.402344 -63.800781 C -4.378906 -51.714844 -1.789062 -41.226562 2.375 -32.328125 C 4.777344 -26.933594 7.867188 -22.085938 11.898438 -17.558594 C 15.933594 -13.03125 21.09375 -9.574219 27.160156 -6.925781 C 33.226562 -4.273438 40.597656 -3.4375 49.300781 -4.175781 C 49.539062 -4.195312 50.042969 -3.996094 50.527344 -4.035156 L 53.910156 -4.320312 C 56.328125 -4.527344 59.207031 -5.011719 62.550781 -5.785156 C 65.890625 -6.554688 69.394531 -8.308594 72.613281 -10.53125 C 75.832031 -12.75 78.507812 -15.652344 81.082031 -19.765625 C 83.652344 -23.878906 85.15625 -29.117188 85.832031 -35.503906 L 85.546875 -7.246094 L 127.355469 -10.785156 C 126.726562 -15.355469 126.035156 -20.652344 125.523438 -26.691406 C 124.851562 -31.746094 124.097656 -37.769531 123.503906 -44.777344 C 122.929688 -51.542969 122.277344 -59.277344 121.539062 -67.976562 L 112.066406 -179.867188 L 63.738281 -172.851562 L 70.082031 -112.296875 L 68.390625 -112.15625 C 66.996094 -114.226562 65.605469 -116.300781 63.992188 -118.109375 C 62.378906 -119.921875 60.523438 -121.710938 58.464844 -122.996094 C 56.167969 -124.261719 53.386719 -125.488281 50.40625 -126.210938 C 47.179688 -126.910156 43.273438 -127.066406 38.683594 -126.675781 C 28.289062 -125.796875 19.976562 -123.390625 13.957031 -119.714844 C 7.960938 -115.800781 3.253906 -111.019531 0.324219 -105.417969 C -2.832031 -99.550781 -4.714844 -93.066406 -5.332031 -85.953125 C -6.167969 -78.582031 -6.035156 -71.289062 -5.402344 -63.800781 Z M 41.386719 -63.136719 C 40.933594 -68.453125 40.585938 -72.5625 40.582031 -75.480469 C 40.339844 -78.382812 40.859375 -80.859375 41.683594 -82.632812 C 42.503906 -84.40625 44.09375 -85.757812 46.429688 -86.929688 C 48.542969 -87.839844 51.625 -88.828125 55.910156 -89.921875 C 59.011719 -90.671875 61.648438 -91.140625 63.582031 -91.304688 C 66.484375 -91.546875 68.476562 -90.988281 70.011719 -90.144531 C 71.542969 -89.300781 72.652344 -87.691406 73.320312 -85.554688 C 73.988281 -83.421875 74.453125 -80.785156 74.71875 -77.640625 L 75.703125 -66.042969 C 76.152344 -60.726562 76.300781 -56.113281 76.625 -52.246094 C 76.710938 -48.359375 76.273438 -44.914062 75.511719 -42.417969 C 74.769531 -39.675781 73.242188 -37.601562 70.929688 -36.1875 C 68.632812 -34.53125 65.050781 -33.742188 60.699219 -33.375 C 56.351562 -33.003906 53.167969 -33.222656 50.871094 -34.488281 C 48.351562 -35.492188 46.496094 -37.28125 45.304688 -39.859375 C 44.132812 -42.195312 43.121094 -45.515625 42.792969 -49.382812 C 42.226562 -53.226562 41.835938 -57.820312 41.386719 -63.136719 Z M 41.386719 -63.136719 "/></g></g></g><g fill="#ffffff" fill-opacity="1"><g transform="translate(666.467395, 570.994285)"><g/></g></g><g fill="#ffffff" fill-opacity="1"><g transform="translate(385.563833, 334.424824)"><g><path d="M 52.335938 -132.917969 L 1.714844 -128.363281 C 2.089844 -114.703125 2.738281 -100.785156 3.398438 -86.339844 C 3.742188 -73.992188 4.117188 -60.328125 4.539062 -45.089844 C 4.960938 -29.851562 5.636719 -14.878906 6.042969 -0.167969 L 49.132812 -1.355469 L 50.976562 -77.398438 C 53.234375 -81.40625 56.554688 -84.914062 61.203125 -87.9375 C 65.855469 -90.957031 70.800781 -92.671875 76.582031 -92.832031 C 78.949219 -92.898438 80.835938 -91.109375 82.246094 -87.730469 C 83.398438 -84.078125 84.308594 -79.632812 84.988281 -74.132812 C 85.664062 -68.628906 85.832031 -62.585938 86.019531 -55.753906 C 85.945312 -48.914062 85.871094 -42.078125 85.527344 -35.492188 C 85.191406 -28.648438 84.839844 -22.328125 84.476562 -16.53125 C 84.109375 -10.738281 83.714844 -5.992188 83.289062 -2.300781 L 135.578125 -3.746094 C 135.945312 -28.472656 135.898438 -49.242188 135.957031 -66.074219 C 136.019531 -82.902344 134.589844 -96.539062 131.9375 -106.980469 C 129.289062 -117.164062 124.617188 -124.398438 118.191406 -128.6875 C 111.761719 -132.980469 102.234375 -135.085938 89.625 -134.738281 C 85.421875 -134.621094 81.246094 -133.453125 77.363281 -131.242188 C 73.480469 -129.03125 69.878906 -126.039062 66.566406 -122.269531 C 63.253906 -118.496094 60.207031 -114.464844 57.703125 -109.925781 C 55.207031 -105.125 52.972656 -100.332031 51.527344 -95.558594 Z M 52.335938 -132.917969 "/></g></g></g></svg>